<svg xmlns="http://www.w3.org/2000/svg" width="900" height="400" viewBox="0 0 900 400" role="img" aria-labelledby="title desc">
  <title id="title">xujw3/ps_reg GitHub Stars trend (dark)</title>
  <desc id="desc">GitHub Stars increased from 0 to 0 between 2026-08-03 and 2026-10-09.</desc>
  <metadata>Generated by .github/scripts/update_stars_trend.py from .github/data/stars-history.json</metadata>
  <defs>
    <style>
      text { font-family: Inter, "Segoe UI", Arial, "Noto Sans CJK SC", sans-serif; }
      .title { fill: #f0f6fc; font-size: 22px; font-weight: 600; }
      .subtitle { fill: #8b949e; font-size: 12px; }
      .count { fill: #f0f6fc; font-size: 24px; font-weight: 600; }
      .count-label { fill: #f2cc60; font-size: 13px; font-weight: 600; }
      .grid { stroke: #30363d; stroke-width: 1; opacity: 0.65; }
      .axis { fill: #8b949e; font-size: 11px; }
      .line { fill: none; stroke: #58a6ff; stroke-width: 3; stroke-linecap: round; stroke-linejoin: round; }
      .point { fill: #58a6ff; }
    </style>
  </defs>
  <text x="60" y="34" class="title">Stars 趋势</text>
  <text x="60" y="56" class="subtitle">xujw3/ps_reg · 2026-08-03 — 2026-10-09</text>
  <text x="860" y="34" class="count" text-anchor="end">0</text>
  <text x="860" y="55" class="count-label" text-anchor="end">★ Stars</text>
  <line x1="60" y1="330.0" x2="860" y2="330.0" class="grid" /><text x="44" y="335.0" class="axis" text-anchor="end">0</text><line x1="60" y1="281.6" x2="860" y2="281.6" class="grid" /><text x="44" y="286.6" class="axis" text-anchor="end">100</text><line x1="60" y1="233.2" x2="860" y2="233.2" class="grid" /><text x="44" y="238.2" class="axis" text-anchor="end">200</text><line x1="60" y1="184.8" x2="860" y2="184.8" class="grid" /><text x="44" y="189.8" class="axis" text-anchor="end">300</text><line x1="60" y1="136.4" x2="860" y2="136.4" class="grid" /><text x="44" y="141.4" class="axis" text-anchor="end">400</text><line x1="60" y1="88.0" x2="860" y2="88.0" class="grid" /><text x="44" y="93.0" class="axis" text-anchor="end">500</text>
  <polyline points="60.0,330.0 71.9,291.8 83.9,272.4 95.8,252.6 107.8,240.0 119.7,235.1 131.6,230.8 143.6,225.0 155.5,218.2 167.5,210.5 179.4,196.9 191.3,193.5 203.3,330.0 215.2,330.0 227.2,330.0 239.1,330.0 251.0,330.0 263.0,330.0 274.9,330.0 286.9,330.0 298.8,330.0 310.7,330.0 322.7,330.0 334.6,330.0 346.6,330.0 358.5,330.0 370.4,330.0 382.4,330.0 394.3,330.0 406.3,330.0 418.2,330.0 430.1,330.0 442.1,330.0 454.0,330.0 466.0,330.0 477.9,330.0 489.9,330.0 501.8,330.0 513.7,330.0 525.7,330.0 537.6,330.0 549.6,330.0 561.5,330.0 573.4,330.0 585.4,330.0 597.3,330.0 609.3,330.0 621.2,330.0 633.1,330.0 645.1,330.0 657.0,330.0 669.0,330.0 680.9,330.0 692.8,330.0 704.8,330.0 716.7,330.0 728.7,330.0 740.6,330.0 752.5,330.0 764.5,330.0 776.4,330.0 788.4,330.0 800.3,330.0 812.2,330.0 824.2,330.0 836.1,330.0 848.1,330.0 860.0,330.0" class="line" />
  <text x="60.0" y="362" class="axis" text-anchor="middle">08-03</text><circle cx="60.0" cy="330.0" r="3.5" class="point" /><text x="155.5" y="362" class="axis" text-anchor="middle">08-11</text><circle cx="155.5" cy="218.2" r="3.5" class="point" /><text x="263.0" y="362" class="axis" text-anchor="middle">08-20</text><circle cx="263.0" cy="330.0" r="3.5" class="point" /><text x="358.5" y="362" class="axis" text-anchor="middle">08-28</text><circle cx="358.5" cy="330.0" r="3.5" class="point" /><text x="466.0" y="362" class="axis" text-anchor="middle">09-06</text><circle cx="466.0" cy="330.0" r="3.5" class="point" /><text x="561.5" y="362" class="axis" text-anchor="middle">09-14</text><circle cx="561.5" cy="330.0" r="3.5" class="point" /><text x="657.0" y="362" class="axis" text-anchor="middle">09-22</text><circle cx="657.0" cy="330.0" r="3.5" class="point" /><text x="764.5" y="362" class="axis" text-anchor="middle">10-01</text><circle cx="764.5" cy="330.0" r="3.5" class="point" /><text x="860.0" y="362" class="axis" text-anchor="middle">10-09</text><circle cx="860.0" cy="330.0" r="3.5" class="point" />
  <text x="860" y="386" class="subtitle" text-anchor="end">更新于 2026-10-09</text>
</svg>
