<svg xmlns="http://www.w3.org/2000/svg" width="900" height="400" viewBox="0 0 900 400" role="img" aria-labelledby="title desc">
  <title id="title">xujw3/ps_reg GitHub Stars trend (dark)</title>
  <desc id="desc">GitHub Stars increased from 0 to 0 between 2026-08-03 and 2026-09-14.</desc>
  <metadata>Generated by .github/scripts/update_stars_trend.py from .github/data/stars-history.json</metadata>
  <defs>
    <style>
      text { font-family: Inter, "Segoe UI", Arial, "Noto Sans CJK SC", sans-serif; }
      .title { fill: #f0f6fc; font-size: 22px; font-weight: 600; }
      .subtitle { fill: #8b949e; font-size: 12px; }
      .count { fill: #f0f6fc; font-size: 24px; font-weight: 600; }
      .count-label { fill: #f2cc60; font-size: 13px; font-weight: 600; }
      .grid { stroke: #30363d; stroke-width: 1; opacity: 0.65; }
      .axis { fill: #8b949e; font-size: 11px; }
      .line { fill: none; stroke: #58a6ff; stroke-width: 3; stroke-linecap: round; stroke-linejoin: round; }
      .point { fill: #58a6ff; }
    </style>
  </defs>
  <text x="60" y="34" class="title">Stars 趋势</text>
  <text x="60" y="56" class="subtitle">xujw3/ps_reg · 2026-08-03 — 2026-09-14</text>
  <text x="860" y="34" class="count" text-anchor="end">0</text>
  <text x="860" y="55" class="count-label" text-anchor="end">★ Stars</text>
  <line x1="60" y1="330.0" x2="860" y2="330.0" class="grid" /><text x="44" y="335.0" class="axis" text-anchor="end">0</text><line x1="60" y1="281.6" x2="860" y2="281.6" class="grid" /><text x="44" y="286.6" class="axis" text-anchor="end">100</text><line x1="60" y1="233.2" x2="860" y2="233.2" class="grid" /><text x="44" y="238.2" class="axis" text-anchor="end">200</text><line x1="60" y1="184.8" x2="860" y2="184.8" class="grid" /><text x="44" y="189.8" class="axis" text-anchor="end">300</text><line x1="60" y1="136.4" x2="860" y2="136.4" class="grid" /><text x="44" y="141.4" class="axis" text-anchor="end">400</text><line x1="60" y1="88.0" x2="860" y2="88.0" class="grid" /><text x="44" y="93.0" class="axis" text-anchor="end">500</text>
  <polyline points="60.0,330.0 79.0,291.8 98.1,272.4 117.1,252.6 136.2,240.0 155.2,235.1 174.3,230.8 193.3,225.0 212.4,218.2 231.4,210.5 250.5,196.9 269.5,193.5 288.6,330.0 307.6,330.0 326.7,330.0 345.7,330.0 364.8,330.0 383.8,330.0 402.9,330.0 421.9,330.0 441.0,330.0 460.0,330.0 479.0,330.0 498.1,330.0 517.1,330.0 536.2,330.0 555.2,330.0 574.3,330.0 593.3,330.0 612.4,330.0 631.4,330.0 650.5,330.0 669.5,330.0 688.6,330.0 707.6,330.0 726.7,330.0 745.7,330.0 764.8,330.0 783.8,330.0 802.9,330.0 821.9,330.0 841.0,330.0 860.0,330.0" class="line" />
  <text x="60.0" y="362" class="axis" text-anchor="middle">08-03</text><circle cx="60.0" cy="330.0" r="3.5" class="point" /><text x="155.2" y="362" class="axis" text-anchor="middle">08-08</text><circle cx="155.2" cy="235.1" r="3.5" class="point" /><text x="250.5" y="362" class="axis" text-anchor="middle">08-13</text><circle cx="250.5" cy="196.9" r="3.5" class="point" /><text x="364.8" y="362" class="axis" text-anchor="middle">08-19</text><circle cx="364.8" cy="330.0" r="3.5" class="point" /><text x="460.0" y="362" class="axis" text-anchor="middle">08-24</text><circle cx="460.0" cy="330.0" r="3.5" class="point" /><text x="555.2" y="362" class="axis" text-anchor="middle">08-29</text><circle cx="555.2" cy="330.0" r="3.5" class="point" /><text x="669.5" y="362" class="axis" text-anchor="middle">09-04</text><circle cx="669.5" cy="330.0" r="3.5" class="point" /><text x="764.8" y="362" class="axis" text-anchor="middle">09-09</text><circle cx="764.8" cy="330.0" r="3.5" class="point" /><text x="860.0" y="362" class="axis" text-anchor="middle">09-14</text><circle cx="860.0" cy="330.0" r="3.5" class="point" />
  <text x="860" y="386" class="subtitle" text-anchor="end">更新于 2026-09-14</text>
</svg>
