<svg xmlns="http://www.w3.org/2000/svg" width="900" height="400" viewBox="0 0 900 400" role="img" aria-labelledby="title desc">
  <title id="title">xujw3/ps_reg GitHub Stars trend (dark)</title>
  <desc id="desc">GitHub Stars increased from 0 to 0 between 2026-08-03 and 2026-10-03.</desc>
  <metadata>Generated by .github/scripts/update_stars_trend.py from .github/data/stars-history.json</metadata>
  <defs>
    <style>
      text { font-family: Inter, "Segoe UI", Arial, "Noto Sans CJK SC", sans-serif; }
      .title { fill: #f0f6fc; font-size: 22px; font-weight: 600; }
      .subtitle { fill: #8b949e; font-size: 12px; }
      .count { fill: #f0f6fc; font-size: 24px; font-weight: 600; }
      .count-label { fill: #f2cc60; font-size: 13px; font-weight: 600; }
      .grid { stroke: #30363d; stroke-width: 1; opacity: 0.65; }
      .axis { fill: #8b949e; font-size: 11px; }
      .line { fill: none; stroke: #58a6ff; stroke-width: 3; stroke-linecap: round; stroke-linejoin: round; }
      .point { fill: #58a6ff; }
    </style>
  </defs>
  <text x="60" y="34" class="title">Stars 趋势</text>
  <text x="60" y="56" class="subtitle">xujw3/ps_reg · 2026-08-03 — 2026-10-03</text>
  <text x="860" y="34" class="count" text-anchor="end">0</text>
  <text x="860" y="55" class="count-label" text-anchor="end">★ Stars</text>
  <line x1="60" y1="330.0" x2="860" y2="330.0" class="grid" /><text x="44" y="335.0" class="axis" text-anchor="end">0</text><line x1="60" y1="281.6" x2="860" y2="281.6" class="grid" /><text x="44" y="286.6" class="axis" text-anchor="end">100</text><line x1="60" y1="233.2" x2="860" y2="233.2" class="grid" /><text x="44" y="238.2" class="axis" text-anchor="end">200</text><line x1="60" y1="184.8" x2="860" y2="184.8" class="grid" /><text x="44" y="189.8" class="axis" text-anchor="end">300</text><line x1="60" y1="136.4" x2="860" y2="136.4" class="grid" /><text x="44" y="141.4" class="axis" text-anchor="end">400</text><line x1="60" y1="88.0" x2="860" y2="88.0" class="grid" /><text x="44" y="93.0" class="axis" text-anchor="end">500</text>
  <polyline points="60.0,330.0 73.1,291.8 86.2,272.4 99.3,252.6 112.5,240.0 125.6,235.1 138.7,230.8 151.8,225.0 164.9,218.2 178.0,210.5 191.1,196.9 204.3,193.5 217.4,330.0 230.5,330.0 243.6,330.0 256.7,330.0 269.8,330.0 283.0,330.0 296.1,330.0 309.2,330.0 322.3,330.0 335.4,330.0 348.5,330.0 361.6,330.0 374.8,330.0 387.9,330.0 401.0,330.0 414.1,330.0 427.2,330.0 440.3,330.0 453.4,330.0 466.6,330.0 479.7,330.0 492.8,330.0 505.9,330.0 519.0,330.0 532.1,330.0 545.2,330.0 558.4,330.0 571.5,330.0 584.6,330.0 597.7,330.0 610.8,330.0 623.9,330.0 637.0,330.0 650.2,330.0 663.3,330.0 676.4,330.0 689.5,330.0 702.6,330.0 715.7,330.0 728.9,330.0 742.0,330.0 755.1,330.0 768.2,330.0 781.3,330.0 794.4,330.0 807.5,330.0 820.7,330.0 833.8,330.0 846.9,330.0 860.0,330.0" class="line" />
  <text x="60.0" y="362" class="axis" text-anchor="middle">08-03</text><circle cx="60.0" cy="330.0" r="3.5" class="point" /><text x="164.9" y="362" class="axis" text-anchor="middle">08-11</text><circle cx="164.9" cy="218.2" r="3.5" class="point" /><text x="256.7" y="362" class="axis" text-anchor="middle">08-18</text><circle cx="256.7" cy="330.0" r="3.5" class="point" /><text x="361.6" y="362" class="axis" text-anchor="middle">08-26</text><circle cx="361.6" cy="330.0" r="3.5" class="point" /><text x="453.4" y="362" class="axis" text-anchor="middle">09-02</text><circle cx="453.4" cy="330.0" r="3.5" class="point" /><text x="558.4" y="362" class="axis" text-anchor="middle">09-10</text><circle cx="558.4" cy="330.0" r="3.5" class="point" /><text x="663.3" y="362" class="axis" text-anchor="middle">09-18</text><circle cx="663.3" cy="330.0" r="3.5" class="point" /><text x="755.1" y="362" class="axis" text-anchor="middle">09-25</text><circle cx="755.1" cy="330.0" r="3.5" class="point" /><text x="860.0" y="362" class="axis" text-anchor="middle">10-03</text><circle cx="860.0" cy="330.0" r="3.5" class="point" />
  <text x="860" y="386" class="subtitle" text-anchor="end">更新于 2026-10-03</text>
</svg>
